<svg width="60" height="16" viewBox="0 0 60 16" fill="none" xmlns="http://www.w3.org/2000/svg">
<path d="M0.292893 7.2929C-0.0976311 7.68342 -0.097631 8.31658 0.292893 8.70711L6.65685 15.0711C7.04738 15.4616 7.68054 15.4616 8.07107 15.0711C8.46159 14.6805 8.46159 14.0474 8.07107 13.6569L2.41421 8L8.07107 2.34315C8.46159 1.95262 8.46159 1.31946 8.07107 0.928933C7.68054 0.538409 7.04738 0.538409 6.65685 0.928933L0.292893 7.2929ZM21 7L1 7L1 9L21 9L21 7Z" fill="black"/>
<path d="M31.7585 12V3.27273H35.2528C35.8949 3.27273 36.4304 3.3679 36.8594 3.55824C37.2884 3.74858 37.6108 4.01278 37.8267 4.35085C38.0426 4.68608 38.1506 5.07244 38.1506 5.50994C38.1506 5.85085 38.0824 6.15057 37.946 6.40909C37.8097 6.66477 37.6222 6.875 37.3835 7.03977C37.1477 7.2017 36.8778 7.31676 36.5739 7.38494V7.47017C36.9063 7.48437 37.2173 7.57812 37.5071 7.75142C37.7997 7.92472 38.0369 8.16761 38.2188 8.48011C38.4006 8.78977 38.4915 9.15909 38.4915 9.58807C38.4915 10.0511 38.3764 10.4645 38.1463 10.8281C37.919 11.1889 37.5824 11.4744 37.1364 11.6847C36.6903 11.8949 36.1406 12 35.4872 12H31.7585ZM33.6037 10.4915H35.108C35.6222 10.4915 35.9972 10.3935 36.233 10.1974C36.4688 9.99858 36.5866 9.73437 36.5866 9.40483C36.5866 9.16335 36.5284 8.95028 36.4119 8.76562C36.2955 8.58097 36.1293 8.43608 35.9134 8.33097C35.7003 8.22585 35.446 8.1733 35.1506 8.1733H33.6037V10.4915ZM33.6037 6.92472H34.9716C35.2244 6.92472 35.4489 6.88068 35.6449 6.79261C35.8438 6.7017 36 6.57386 36.1136 6.40909C36.2301 6.24432 36.2884 6.04688 36.2884 5.81676C36.2884 5.50142 36.1761 5.24716 35.9517 5.05398C35.7301 4.8608 35.4148 4.7642 35.0057 4.7642H33.6037V6.92472ZM41.5245 12.1236C41.1069 12.1236 40.7347 12.0511 40.408 11.9062C40.0813 11.7585 39.8228 11.5412 39.6325 11.2543C39.445 10.9645 39.3512 10.6037 39.3512 10.1719C39.3512 9.80824 39.418 9.50284 39.5515 9.25568C39.685 9.00852 39.8668 8.80966 40.0969 8.65909C40.3271 8.50852 40.5884 8.39489 40.881 8.31818C41.1765 8.24148 41.4862 8.1875 41.81 8.15625C42.1907 8.11648 42.4975 8.07955 42.7305 8.04545C42.9634 8.00852 43.1325 7.95455 43.2376 7.88352C43.3427 7.8125 43.3952 7.70739 43.3952 7.56818V7.54261C43.3952 7.27273 43.31 7.06392 43.1396 6.91619C42.9719 6.76847 42.7333 6.6946 42.4237 6.6946C42.0969 6.6946 41.837 6.76705 41.6438 6.91193C41.4506 7.05398 41.3228 7.23295 41.2603 7.44886L39.5813 7.3125C39.6665 6.91477 39.8342 6.57102 40.0842 6.28125C40.3342 5.98864 40.6566 5.7642 41.0515 5.60795C41.4492 5.44886 41.9094 5.36932 42.4322 5.36932C42.7958 5.36932 43.1438 5.41193 43.4762 5.49716C43.8114 5.58239 44.1083 5.71449 44.3668 5.89347C44.6282 6.07244 44.8342 6.30256 44.9847 6.58381C45.1353 6.86222 45.2106 7.19602 45.2106 7.58523V12H43.489V11.0923H43.4379C43.3327 11.2969 43.1921 11.4773 43.016 11.6335C42.8398 11.7869 42.6282 11.9077 42.381 11.9957C42.1339 12.081 41.8484 12.1236 41.5245 12.1236ZM42.0444 10.8707C42.3114 10.8707 42.5472 10.8182 42.7518 10.7131C42.9563 10.6051 43.1168 10.4602 43.2333 10.2784C43.3498 10.0966 43.408 9.89062 43.408 9.66051V8.96591C43.3512 9.00284 43.2731 9.03693 43.1737 9.06818C43.0771 9.09659 42.9677 9.12358 42.8455 9.14915C42.7234 9.17187 42.6012 9.19318 42.479 9.21307C42.3569 9.23011 42.2461 9.24574 42.1467 9.25994C41.9336 9.29119 41.7475 9.34091 41.5884 9.40909C41.4293 9.47727 41.3058 9.5696 41.2177 9.68608C41.1296 9.79972 41.0856 9.94176 41.0856 10.1122C41.0856 10.3594 41.1751 10.5483 41.354 10.679C41.5359 10.8068 41.766 10.8707 42.0444 10.8707ZM49.5763 12.1278C48.9059 12.1278 48.3292 11.9858 47.8462 11.7017C47.3661 11.4148 46.9968 11.017 46.7383 10.5085C46.4826 10 46.3548 9.41477 46.3548 8.75284C46.3548 8.08239 46.484 7.49432 46.7425 6.98864C47.0039 6.48011 47.3746 6.08381 47.8548 5.79972C48.3349 5.51278 48.9059 5.36932 49.5678 5.36932C50.1388 5.36932 50.6388 5.47301 51.0678 5.6804C51.4968 5.88778 51.8363 6.17898 52.0863 6.55398C52.3363 6.92898 52.4741 7.36932 52.4996 7.875H50.7866C50.7383 7.5483 50.6104 7.28551 50.4031 7.08665C50.1985 6.88494 49.93 6.78409 49.5977 6.78409C49.3164 6.78409 49.0707 6.8608 48.8604 7.0142C48.6531 7.16477 48.4911 7.38494 48.3746 7.67472C48.2582 7.96449 48.1999 8.31534 48.1999 8.72727C48.1999 9.14489 48.2567 9.5 48.3704 9.79261C48.4869 10.0852 48.6502 10.3082 48.8604 10.4616C49.0707 10.6151 49.3164 10.6918 49.5977 10.6918C49.805 10.6918 49.9911 10.6491 50.1559 10.5639C50.3235 10.4787 50.4613 10.3551 50.5692 10.1932C50.68 10.0284 50.7525 9.83097 50.7866 9.60085H52.4996C52.4712 10.1009 52.3349 10.5412 52.0906 10.9219C51.8491 11.2997 51.5153 11.5952 51.0891 11.8082C50.663 12.0213 50.1587 12.1278 49.5763 12.1278ZM55.3068 10.1165L55.3111 7.93892H55.5753L57.6719 5.45455H59.7557L56.9389 8.74432H56.5085L55.3068 10.1165ZM53.6619 12V3.27273H55.4773V12H53.6619ZM57.7528 12L55.8267 9.14915L57.0369 7.86648L59.8793 12H57.7528Z" fill="black"/>
</svg>
