<svg width="22" height="14" viewBox="0 0 22 14" fill="none" xmlns="http://www.w3.org/2000/svg">
<path d="M13 10H8ZM18 10H21V6.85005C21.0007 6.61207 20.9165 6.38165 20.7625 6.20019C20.6085 6.01873 20.3949 5.89812 20.16 5.86005L15 5.00005L12.3 1.40005C12.2069 1.27585 12.0861 1.17505 11.9472 1.10562C11.8084 1.03619 11.6552 1.00005 11.5 1.00005H4.24C3.86727 0.997454 3.50123 1.09907 3.18318 1.29344C2.86513 1.4878 2.60772 1.76718 2.44 2.10005L1.64 3.73005C1.22015 4.56466 1.00099 5.48578 1 6.42005V10H3" fill="black"/>
<path d="M13 10H8M18 10H21V6.85005C21.0007 6.61207 20.9165 6.38165 20.7625 6.20019C20.6085 6.01873 20.3949 5.89812 20.16 5.86005L15 5.00005L12.3 1.40005C12.2069 1.27585 12.0861 1.17505 11.9472 1.10562C11.8084 1.03619 11.6552 1.00005 11.5 1.00005H4.24C3.86727 0.997454 3.50123 1.09907 3.18318 1.29344C2.86513 1.4878 2.60772 1.76718 2.44 2.10005L1.64 3.73005C1.22015 4.56466 1.00099 5.48578 1 6.42005V10H3" stroke="white" stroke-linecap="round" stroke-linejoin="round"/>
<path d="M5.5 13C6.88071 13 8 11.8807 8 10.5C8 9.11929 6.88071 8 5.5 8C4.11929 8 3 9.11929 3 10.5C3 11.8807 4.11929 13 5.5 13Z" fill="black" stroke="white" stroke-linecap="round" stroke-linejoin="round"/>
<path d="M15.5 13C16.8807 13 18 11.8807 18 10.5C18 9.11929 16.8807 8 15.5 8C14.1193 8 13 9.11929 13 10.5C13 11.8807 14.1193 13 15.5 13Z" fill="black" stroke="white" stroke-linecap="round" stroke-linejoin="round"/>
</svg>
